<?xml version="1.0" standalone="no"?>
<!DOCTYPE svg PUBLIC "-//W3C//DTD SVG 20010904//EN"
 "http://www.w3.org/TR/2001/REC-SVG-20010904/DTD/svg10.dtd">
<svg version="1.0" xmlns="http://www.w3.org/2000/svg"
 width="118.000000pt" height="127.000000pt" viewBox="0 0 118.000000 127.000000"
 preserveAspectRatio="xMidYMid meet">

<g transform="translate(0.000000,127.000000) scale(0.100000,-0.100000)"
fill="#000000" stroke="none">
<path d="M0 635 l0 -635 590 0 590 0 0 635 0 635 -590 0 -590 0 0 -635z m863
532 c15 -10 17 -27 15 -117 -4 -137 -22 -139 -26 -2 l-3 102 -259 0 -260 0 2
-352 3 -353 255 0 255 0 5 154 c4 111 9 156 18 159 17 5 18 -308 0 -326 -9 -9
-96 -12 -328 -12 -332 0 -340 1 -340 45 0 11 -10 24 -22 30 -13 6 -23 19 -23
30 0 11 10 24 23 30 32 14 32 72 0 77 -17 2 -23 10 -23 28 0 16 8 28 23 35 32
14 30 58 -4 73 -32 15 -30 55 4 60 17 3 22 10 22 35 0 24 -6 35 -22 42 -13 6
-23 19 -23 30 0 11 10 24 23 30 16 7 22 18 22 42 0 25 -5 32 -22 35 -17 2 -23
10 -23 28 0 16 8 28 23 35 13 6 22 19 22 32 0 12 8 27 18 32 27 16 623 14 645
-2z m-62 -97 c13 -20 4 -91 -13 -101 -21 -14 -291 -6 -296 9 -3 9 30 12 142
12 l146 0 0 35 0 35 -185 0 -185 0 0 -35 c0 -28 4 -35 20 -35 11 0 20 -5 20
-10 0 -17 -27 -22 -49 -10 -28 14 -30 93 -3 110 11 6 87 9 205 8 154 -3 190
-6 198 -18z m197 -118 c6 -9 12 -21 12 -27 0 -14 -63 -74 -273 -260 -159 -140
-255 -209 -286 -203 -28 6 -23 42 14 90 35 47 437 410 465 420 21 9 53 -1 68
-20z m-280 -99 c3 -10 -35 -13 -167 -13 -157 0 -184 4 -164 24 4 3 79 5 167 4
117 -2 160 -6 164 -15z m-110 -110 c3 -10 -24 -13 -112 -13 -107 0 -128 5
-109 24 13 12 216 2 221 -11z m349 -394 c16 -16 5 -39 -17 -39 -25 0 -35 18
-20 35 15 18 22 19 37 4z m-712 -106 c9 -54 19 -106 21 -115 4 -14 -1 -18 -25
-18 -26 0 -31 4 -31 25 0 23 -4 25 -43 25 -37 0 -46 -4 -55 -25 -9 -19 -19
-25 -42 -25 l-31 0 17 32 c9 18 36 70 61 116 42 77 47 82 78 82 l33 0 17 -97z
m241 80 c-3 -10 -10 -54 -16 -98 -17 -120 -12 -113 -83 -113 -72 0 -97 16 -97
61 0 42 27 92 56 106 33 15 44 14 66 -6 17 -15 18 -15 18 10 0 41 10 57 37 57
18 0 23 -4 19 -17z m154 -51 c22 -18 22 -21 10 -90 l-12 -71 -71 2 -72 2 -3
32 c-4 37 20 57 81 68 20 4 37 11 37 16 0 15 -30 23 -43 10 -13 -13 -57 -15
-57 -2 0 18 53 51 80 51 15 0 38 -8 50 -18z m159 6 c11 -10 14 -10 18 0 3 6
16 12 30 12 22 0 24 -3 19 -27 -3 -16 -10 -57 -16 -93 -16 -93 -18 -99 -50
-115 -40 -20 -83 -19 -111 4 -26 21 -25 25 9 35 13 5 22 3 22 -3 0 -18 57 -13
64 5 11 28 6 34 -19 22 -58 -26 -98 28 -76 103 17 55 78 87 110 57z m151 -9
c0 -11 -5 -51 -11 -90 -11 -63 -14 -69 -35 -69 -27 0 -28 1 -13 89 14 88 15
91 39 91 14 0 20 -7 20 -21z m176 -5 c22 -21 25 -31 19 -61 -12 -66 -47 -97
-107 -95 -41 1 -68 32 -68 79 0 26 8 43 34 69 43 43 85 46 122 8z"/>
<path d="M230 1132 c0 -9 10 -22 23 -27 14 -7 22 -19 22 -35 0 -18 -6 -26 -22
-28 -18 -3 -23 -10 -23 -35 0 -24 6 -35 23 -42 12 -6 22 -19 22 -30 0 -11 -10
-24 -22 -30 -17 -7 -23 -18 -23 -42 0 -25 5 -32 23 -35 33 -5 35 -45 3 -60
-36 -16 -36 -60 0 -76 32 -15 30 -55 -3 -60 -18 -3 -23 -10 -23 -35 0 -24 6
-35 23 -42 29 -13 29 -47 -1 -60 -15 -6 -22 -17 -20 -30 2 -16 11 -20 38 -20
l35 0 3 353 2 352 -40 0 c-32 0 -40 -4 -40 -18z"/>
<path d="M180 1070 c0 -5 16 -10 35 -10 19 0 35 5 35 10 0 6 -16 10 -35 10
-19 0 -35 -4 -35 -10z"/>
<path d="M183 938 c2 -7 16 -13 32 -13 16 0 30 6 33 13 2 8 -8 12 -33 12 -25
0 -35 -4 -32 -12z"/>
<path d="M180 800 c0 -5 16 -10 35 -10 19 0 35 5 35 10 0 6 -16 10 -35 10 -19
0 -35 -4 -35 -10z"/>
<path d="M180 660 c0 -5 16 -10 35 -10 19 0 35 5 35 10 0 6 -16 10 -35 10 -19
0 -35 -4 -35 -10z"/>
<path d="M180 520 c0 -5 13 -10 29 -10 17 0 33 5 36 10 4 6 -8 10 -29 10 -20
0 -36 -4 -36 -10z"/>
<path d="M908 926 c-26 -24 -27 -24 -7 -42 19 -17 21 -17 47 3 15 11 27 29 27
39 0 28 -35 28 -67 0z"/>
<path d="M693 734 c-90 -79 -163 -148 -163 -152 0 -4 8 -12 19 -19 16 -10 39
7 184 135 157 138 166 147 150 164 -9 10 -19 18 -22 18 -3 0 -79 -66 -168
-146z"/>
<path d="M476 525 c-31 -40 -23 -44 29 -14 28 17 33 24 24 35 -17 20 -24 18
-53 -21z"/>
<path d="M166 251 c-22 -41 -20 -51 8 -51 23 0 24 3 19 38 -8 49 -9 49 -27 13z"/>
<path d="M372 243 c-18 -7 -34 -52 -26 -75 8 -27 45 -19 64 14 21 39 -2 76
-38 61z"/>
<path d="M570 180 c-31 -7 -40 -40 -12 -40 21 0 46 24 40 38 -1 4 -14 6 -28 2z"/>
<path d="M762 243 c-18 -7 -34 -52 -26 -75 8 -28 46 -19 62 14 10 21 10 33 2
48 -11 21 -16 22 -38 13z"/>
<path d="M1035 226 c-22 -33 -16 -70 11 -74 29 -4 46 20 42 60 -4 41 -31 49
-53 14z"/>
</g>
</svg>
